<svg width="1000" height="1001" xmlns="http://www.w3.org/2000/svg">
  <g fill="none" fill-rule="evenodd">
    <path fill="#FF5CC6" fill-rule="nonzero" d="M78.5 498.5h843v-12l29 14.5-29 14.5v-12h-843v12l-29-14.5 29-14.5v12z"/>
    <path stroke="#FF5CC6" stroke-width="3" stroke-linecap="square" d="M100 551h800M100 601h800M100 651h800M100 701h800M100 751h800M100 801h800M100 851h800M100 901h800M100 101.5h800M100 151.5h800M100 201.5h800M100 251.5h800M100 301.5h800M100 351.5h800M100 401.5h800M100 451.5h800" />
    <path fill="#FF5CC6" fill-rule="nonzero" d="M503 80v843h12l-14.5 29-14.5-29h12V80h-12l14.5-29L515 80h-12z"/>
    <path stroke="#FF5CC6" stroke-width="3" stroke-linecap="square" d="M450.5 101.5v800M400.5 101.5v800M350.5 101.5v800M300.5 101.5v800M250.5 101.5v800M200.5 101.5v800M150.5 101.5v800M100.5 101.5v800M900 101.5v800M850 101.5v800M800 101.5v800M750 101.5v800M700 101.5v800M650 101.5v800M600 101.5v800M550 101.5v800" />
  </g>
</svg>